<svg xmlns="http://www.w3.org/2000/svg" viewBox="0 0 100 100" height="100" width="100">
    <g fill="none" stroke="#000" stroke-width="5">
        <path d="M-3.548 63.686s19.168-9.758 58.408-9.758 58.743 9.075 58.743 9.075M10.929 30.176l51.683 18.81s2.697-20.301-18.724-28.097c-21.42-7.797-32.959 9.287-32.959 9.287z"/>
        <path d="M25.025 35.306s11.63-17.176 18.978-14.377c7.347 2.8 4.514 22.927 4.514 22.927m-11.705-4.26l-5.48 14.26"/>
        <circle r="10" cy="20.148" cx="78.292"/>
        <path d="M78.07 7.917L77.884.148m12.302 20h10m-32.95 0h-10m21.02 10l-.186 10m-7.883-12.609l-7.05 7.61m22.05-23.133l7.418-6.868m-22.418 7.8l-10-7.8m25 23.078l7.427 6.922M-2.097 69.906s9.733-4.797 15-5c6.866-.263 13.128 5 20 5 6.871 0 13.133-5.263 20-5 5.266.203 9.73 5 15 5s9.73-5 15-5 9.73 5 15 5 15-5 15-5M-4.608 82.237s9.734-4.798 15-5c6.867-.264 13.128 5 20 5s13.133-5.264 20-5c5.267.202 9.73 5 15 5s9.73-5 15-5 9.73 5 15 5 15-5 15-5M-7.097 94.906s9.733-4.797 15-5c6.866-.263 13.128 5 20 5 6.871 0 13.133-5.263 20-5 5.266.203 9.73 5 15 5s9.73-5 15-5 9.73 5 15 5 15-5 15-5"/>
    </g>
</svg>
