<svg xmlns="http://www.w3.org/2000/svg" viewBox="0 0 100 100" height="100" width="100">
    <g fill="none" stroke="#294242" stroke-width="4">
        <path d="M34.997 50v10M40 50v10m4.994-10v10m5.003-10v10M55 50v10m4.998-10v10m4.999-10v10M15 65.005h69.999V45c-19.33-3.027-39.565-4.087-70.004 0z"/>
        <circle cx="74.998" cy="55.002" r="4.998"/>
        <circle cy="55.214" cx="25.423" r="4.998"/>
        <path d="M15 65.004H4.998V75H95v-9.996H84.999M14.999 50s-6.331.242-8.307 2.332C4.892 54.237 4.998 60 4.998 60H15m69.999-10s6.327.242 8.303 2.332C95.106 54.237 95 60 95 60H84.999m-80 0v5.003M95 60v5.003M4.998 75v10.002c0 3.335 10.002 3.335 10.002 0V75m69.999 0v10.002c0 3.335 10.001 3.335 10.001 0V75M15 45.006v-10.01h69.999v10"/>
        <path d="M15 35s0-24.996 4.998-24.996h59.998C85 10.004 85 35 85 35"/>
        <path d="M20.002 35s0-19.998 4.994-19.998h50.006C80 15.002 80 35 80 35m-65 0H9.997s1.179-3.82 0-4.998c-1.175-1.18-3.82-1.18-4.999 0-2.358 2.358 0 10 0 10H15M84.999 35h4.998s-1.179-3.82 0-4.998c1.18-1.18 3.824-1.18 5.003 0 2.354 2.358 0 10 0 10H84.999"/>
        <path d="M55 35s2.53-4.998 9.997-4.998c7.47 0 10 4.998 10 4.998"/>
    </g>
</svg>
