<svg xmlns="http://www.w3.org/2000/svg" viewBox="0 0 100 100" height="100" width="100">
    <g fill="none" stroke="#000">
        <path d="M81.684 55.91c5.294-1.844 9.82-7.838 1.296-16.823-9.629-6.247-14.316-1.597-15.946 7.159 0 0-9.408 3.596-11.76 7.635-3.322 5.703-6.234 15.516-1.182 19.763 5.296 4.451 14.879-.359 20.197-4.785 3.5-2.912 1.5-8.745 5.511-12.499 3.106 7.556 2.955 14.85 2.627 22.556m-15.393-32.67c-6.462-3.039-9.765-1.676-9.75-6.31.116-4.62 7-5 7.716-19.936-.716-20.064-30.716-20.064-30.972-.224.256 15.16 6.992 15.82 7.256 20.16-.014 4.196-10.744 5.26-16.484 8.98-5.902 5.731-9.745 22.043-7.415 30 1.296 3.942 3.709 8.134 7.415 10 10.42 5.246 23.834 3.38 35 0 5.752-1.741 16.146-4.101 15-10-1.372-7.062-38.515 2.962-42.023-.749-3.565-3.771-2.977-9.251 2.023-14.251" stroke-width="5"/>
        <path d="M69.214 48.075l1.233 14.089" stroke-width="2"/>
        <path d="M78.993 55.162l-9.162-.042" stroke-width="2"/>
        <path d="M72.795 47.164s.565 2.12 1.35 2.793c.827.71 3.126.963 3.126.963" stroke-width="2"/>
        <path d="M73.5 42.326s1.992-.647 2.696-.09c.754.598.567 2.828.567 2.828" stroke-width="2"/>
        <path d="M78.31 46.57s1.991-.648 2.696-.09c.753.597.567 2.828.567 2.828" stroke-width="2"/>
    </g>
</svg>
