<svg xmlns="http://www.w3.org/2000/svg" viewBox="0 0 100 100" height="100" width="100">
    <g fill="none" stroke="#000">
        <path d="M51 47s-10.644-6.823-16.926-7.843c-3.31-.537-8.576 1.852-8.576 1.852s-10.8-11.7-13.5-9c-2.7 2.7 4.02 10.687 9 13.5 0 0-2.389 6.537-1.852 9.848C20.166 61.638 29 71 29 71z" stroke-width="5"/>
        <path d="M43.498 50.01s-4.944-6.072-8.268-6.52c-6.423-.866-13.022 5.292-11.93 11.26.603 3.3 6.698 8.76 6.698 8.76" stroke-width="2"/>
        <path d="M65 55s-20 7.603-15.763 20.06C51.447 81.557 60 95 60 95c7.686-12.15 20-20 20-20s-10.35-3.236-13.202-7.397C64.398 64.103 65 55 65 55z" stroke-width="5"/>
        <path d="M60 60c0 5 35-50 30-55-5 0-33.27 57.409-30 55z" stroke-width="5"/>
        <path d="M65 90l-5-7.903" stroke-width="2"/>
        <path d="M70 85l-5-5" stroke-width="2"/>
        <path d="M75 82l-7.458-7" stroke-width="2"/>
    </g>
</svg>
