<svg xmlns="http://www.w3.org/2000/svg" viewBox="0 0 100 100" height="100" width="100">
    <g fill="none" stroke="#000">
        <path d="M45 60c-2.323-.939-11.077-4.642-11.072-6.52.092-3.752 5.508-4.06 6.072-16.192-.564-16.297-24.17-16.297-24.372-.182.201 12.314 5.502 12.85 5.71 16.375-.019 6.01-17.312 4.061-17.29 14.295L5 87.754" stroke-width="5"/>
        <path d="M0 90c1.326-3.02 38.998-15.274 42.024-23.736 5.714-15.98 12.694-36.269 14.266-40.493-1.66-6.66 8.906-15.268 9.073-16.231C65.879 6.56 65 20 65 20s9.078 5.128 10.783 6.781c6.181 6 14.933 14.294 17.64 18.576 1.85 2.926.167 8.697-2.283 11.109-1.899 1.868-7.569 3.887-12.171-.863-4.988.686-6.718-.606-11.27-2.536C66.472 57.518 59.849 68.017 65 75c5.472 7.966 2.61 17.373 0 20" stroke-width="5"/>
        <ellipse transform="matrix(.90105 .43371 -.41169 .91132 0 0)" ry="1.027" rx="1.446" cy="-2.973" cx="78.556" stroke-width="2"/>
    </g>
</svg>
