<svg xmlns="http://www.w3.org/2000/svg" viewBox="0 0 100 100" height="100" width="100">
    <g fill="none" stroke="#000" stroke-width="5">
        <path d="M1.756 78.984c-.026-11.34 19.753-9.18 19.774-15.84-.237-3.906-6.3-4.5-6.53-18.144.23-17.856 27.23-17.856 27.875.202-.645 13.442-6.84 13.784-6.945 17.942-.006 2.08 1.923 3.3 4.58 4.34"/>
        <path d="M35.587 79.402c4.381-9.667 17.288-34.2 20.038-41.36-1.898-7.38 10.186-16.917 10.377-17.984.59-3.302-.415 11.59-.415 11.59s9.138-.947 14.027 5.184c3.18 3.989 12.04 6.99 15.091 7.446 3.83.571.9 10.495.043 14.271-.48 2.114-6.486 2.719-12.145 1.232-5.357-1.408-10.534.29-11.729-.09-4.391-1.397-8-1.99-8-1.99.051 8.075-1.478 17.704 2.713 21.7"/>
    </g>
</svg>
