<svg xmlns="http://www.w3.org/2000/svg" viewBox="0 0 100 100" height="100" width="100">
    <g fill="none" stroke="#000">
        <path d="M7.478 77.352c-.023-10.234 17.27-8.285 17.288-14.295-.207-3.526-5.508-4.062-5.709-16.375.201-16.115 23.808-16.115 24.372.182-.564 12.131-5.98 12.44-6.072 16.193-.006 1.877 1.68 2.978 4.004 3.916" stroke-width="5"/>
        <path d="M37.057 77.73c3.83-8.725 15.115-30.866 17.52-37.328-1.66-6.66 8.905-15.268 9.072-16.23.516-2.98-.363 10.46-.363 10.46s9.078 5.127 10.783 6.78c6.182 6 14.934 14.295 17.64 18.576 1.85 2.927.168 8.697-2.283 11.109-1.898 1.868-7.568 3.887-12.17-.863-4.989.686-6.719-.605-11.27-2.536-2.141 7.765-2.293 7.054-1.827 10.58" stroke-width="5"/>
        <ellipse cx="83.02" cy="10.958" rx="1.446" ry="1.027" transform="matrix(.90105 .43371 -.41169 .91132 0 0)" stroke-width="2"/>
    </g>
</svg>
