<svg xmlns="http://www.w3.org/2000/svg" viewBox="0 0 100 100" height="100" width="100">
    <g fill="none" stroke="#000" stroke-width="5">
        <path d="M37.416 48.8s-2.262-6.65-7.566-6.65c-12.088 0-10.15 16.402-10.15 24.672M60.303 48.8s-2.262-6.65-7.565-6.65c-12.09 0-10.151 16.402-10.151 24.672" stroke-width="4.108"/>
        <path d="M-10 50h120" stroke-width="5.477"/>
        <path d="M20 60h23.295M-5 70s9.733-4.798 15-5c6.867-.264 13.128 5 20 5s13.133-5.264 20-5c5.267.202 9.73 5 15 5s9.73-5 15-5 9.73 5 15 5 15-5 15-5M-7.51 82.33s9.733-4.797 15-5c6.866-.263 13.128 5 20 5 6.871 0 13.133-5.263 20-5 5.266.203 9.73 5 15 5s9.73-5 15-5 9.73 5 15 5 15-5 15-5M-10 95s9.733-4.798 15-5c6.867-.264 13.128 5 20 5s13.133-5.264 20-5c5.267.202 9.73 5 15 5s9.73-5 15-5 9.73 5 15 5 15-5 15-5"/>
        <circle cx="80.036" cy="20" r="10"/>
        <path d="M79.814 7.769L79.628 0M91.93 20h10m-32.95 0h-10M80 30l-.186 10M71.93 27.391L64.88 35m22.05-23.132L94.348 5M71.93 12.8l-10-7.8m25 23.078L94.357 35"/>
    </g>
</svg>
