<svg xmlns="http://www.w3.org/2000/svg" viewBox="0 0 100 100" height="100" width="100">
    <g fill="none" stroke="#000" stroke-width="5">
        <path d="M32 88c-6 0-17-18-17-18h67.817S78.419 83.276 71 85"/>
        <path d="M45 70V10c18.877 12.819 33.033 32.672 35 50H20c12.71-15.13 19.396-26.982 25-40"/>
        <path d="M-10 70s9.734-4.798 15-5c6.867-.264 13.128 5 20 5m60 0c10 5 14.937-3.423 20-3.202"/>
        <path d="M-10.457 89.477s9.733-4.798 15-5c6.866-.264 13.127 5 20 5 6.871 0 13.132-5.264 20-5 5.266.202 9.73 5 15 5s9.73-5 15-5 9.73 5 15 5 15-5 15-5"/>
        <path d="M-10 50s14.733-4.798 20-5c6.866-.264 13.26 2.082 20 5m47.687-1.046c5.27 0 9.73 5 15 5s13.409-5.53 13.409-5.53"/>
    </g>
</svg>
