<svg xmlns="http://www.w3.org/2000/svg" viewBox="0 0 100 100" height="100" width="100">
    <g fill="none" stroke="#000" stroke-width="5">
        <path d="M0 75c9.812 3.133 32.92-15.029 40-40 11.527 7.166 17.957 2.805 25-.339 8.522 26.004 29.802 61.43 37.09 53.968"/>
        <path d="M40.542 26S45.23 18.26 45 14c-.16-2.977-1.892-5.892-4-8-2.108-2.108-8-4-8-4"/>
        <path d="M61.898 26.678s-2.33-7.38-1.508-10.983c.8-3.514 3.21-6.695 5.966-9.017C69.32 4.181 77 2 77 2"/>
        <path d="M57 2s-5.69 4.361-6.305 7.593c-.53 2.78 2.288 5.26 2.644 8.068C53.857 21.75 52.542 30 52.542 30"/>
        <path d="M40 55l2.09 18.629-8 16-16 8"/>
        <path d="M53.91 45.371L55 72.864 47 79l8 16"/>
        <path d="M65 55l5 15 5 10-5 10 20 5"/>
    </g>
</svg>
