<svg xmlns="http://www.w3.org/2000/svg" viewBox="0 0 100 100" height="100" width="100">
    <g fill="none" stroke="#000" stroke-width="5">
        <path d="M-8.71 51.71s9.734-4.798 15-5c6.867-.264 13.128 5 20 5s13.133-5.264 20-5c5.267.202 9.73 5 15 5s9.73-5 15-5 9.73 5 15 5 15-3.202 15-3.202"/>
        <path d="M-10.704 67.714s9.733-4.798 15-5c6.866-.264 13.127 5 20 5 6.871 0 13.132-5.264 20-5 5.266.202 9.73 5 15 5s9.73-5 15-5 9.73 5 15 5 15-5 15-5"/>
        <path d="M-5.247 33.237s10.033-2.701 15.3-2.903c6.866-.264 13.127 5 20 5 6.871 0 13.132-5.264 20-5 5.266.202 9.73 5 15 5s9.73-5 15-5 9.73 5 15 5 15-5 15-5"/>
    </g>
</svg>
