<svg xmlns="http://www.w3.org/2000/svg" viewBox="0 0 100 100" height="100" width="100">
    <g fill="none" stroke="#000" stroke-width="5">
        <path d="M63.314 55.127c9.068-15.169 5.634-25.554-6.398-28.009-.451-.564 3.613-4.742 3.103-8.997-1.55-12.943-18.12-14.293-20.816.015-.773 4.103 4.425 9.293 3.712 9.42-12.793.699-16.073 16.74-6.882 28.194C6.824 62.274 21.95 85.324 52.078 79.786c36.462 5.115 37.866-23.014 11.236-24.659z"/>
        <path d="M31.934 37.412l-10.755.3L5.965 94.915c37.042.511 58.1.528 90.1.424L79.43 37.712H68.914"/>
    </g>
</svg>
