<svg xmlns="http://www.w3.org/2000/svg" viewBox="0 0 100 100" height="100" width="100">
    <g transform="translate(-1.483 -6.144)" fill="none" stroke="#294242" stroke-width="5">
        <path d="M-2.065 69.83s19.168-9.758 58.408-9.758 58.743 9.075 58.743 9.075" stroke-width="5.254"/>
        <path d="M12.412 36.32l51.683 18.81s2.697-20.301-18.724-28.097c-21.42-7.797-32.959 9.287-32.959 9.287z"/>
        <path d="M26.508 41.45s11.63-17.176 18.978-14.377C52.833 29.873 50 50 50 50m-11.705-4.26L32.815 60"/>
        <circle r="10" cy="26.292" cx="79.775"/>
        <path d="M79.553 14.061l-.186-7.769m12.302 20h10m-32.95 0h-10m21.02 10l-.186 10M71.67 33.683l-7.05 7.61M86.67 18.16l7.418-6.868m-22.418 7.8l-10-7.8m25 23.078l7.427 6.922"/>
    </g>
    <path d="M-2.097 69.906s9.733-4.797 15-5c6.866-.263 13.128 5 20 5 6.871 0 13.133-5.263 20-5 5.266.203 9.73 5 15 5s9.73-5 15-5 9.73 5 15 5 15-5 15-5M-4.608 82.237s9.734-4.798 15-5c6.867-.264 13.128 5 20 5s13.133-5.264 20-5c5.267.202 9.73 5 15 5s9.73-5 15-5 9.73 5 15 5 15-5 15-5M-7.097 94.906s9.733-4.797 15-5c6.866-.263 13.128 5 20 5 6.871 0 13.133-5.263 20-5 5.266.203 9.73 5 15 5s9.73-5 15-5 9.73 5 15 5 15-5 15-5" stroke-width="5" fill="none" stroke="#294242"/>
</svg>
