<?xml version="1.0" encoding="UTF-8" standalone="no"?>
<svg
   xmlns:dc="http://purl.org/dc/elements/1.1/"
   xmlns:cc="http://creativecommons.org/ns#"
   xmlns:rdf="http://www.w3.org/1999/02/22-rdf-syntax-ns#"
   xmlns:svg="http://www.w3.org/2000/svg"
   xmlns="http://www.w3.org/2000/svg"
   xmlns:sodipodi="http://sodipodi.sourceforge.net/DTD/sodipodi-0.dtd"
   xmlns:inkscape="http://www.inkscape.org/namespaces/inkscape"
   viewBox="0 0 100 100"
   height="100"
   width="100"
   version="1.1"
   id="svg4229"
   sodipodi:docname="chef.svg"
   inkscape:version="0.92.2 5c3e80d, 2017-08-06">
  <metadata
     id="metadata4235">
    <rdf:RDF>
      <cc:Work
         rdf:about="">
        <dc:format>image/svg+xml</dc:format>
        <dc:type
           rdf:resource="http://purl.org/dc/dcmitype/StillImage" />
        <dc:title></dc:title>
      </cc:Work>
    </rdf:RDF>
  </metadata>
  <defs
     id="defs4233" />
  <sodipodi:namedview
     pagecolor="#ffffff"
     bordercolor="#666666"
     borderopacity="1"
     objecttolerance="10"
     gridtolerance="10"
     guidetolerance="10"
     inkscape:pageopacity="0"
     inkscape:pageshadow="2"
     inkscape:window-width="1188"
     inkscape:window-height="604"
     id="namedview4231"
     showgrid="true"
     inkscape:zoom="3.337544"
     inkscape:cx="61.385618"
     inkscape:cy="48.202271"
     inkscape:window-x="0"
     inkscape:window-y="0"
     inkscape:window-maximized="0"
     inkscape:current-layer="svg4229">
    <inkscape:grid
       type="xygrid"
       id="grid4780" />
  </sodipodi:namedview>
  <path
     style="fill:none;fill-opacity:1;stroke:#294242;stroke-width:5;stroke-miterlimit:4;stroke-dasharray:none;stroke-opacity:1"
     d="M 25,90 V 70 C 25,70 14.170261,67.792204 10,60 5.8297388,52.207796 5.527864,33.944272 10,25 c 4.472136,-8.944272 24.722598,3.425801 35,0 10.277402,-3.425801 19.722598,-13.425801 30,-10 10.277402,3.425801 10.527864,1.055728 15,10 4.472136,8.944272 4.170261,27.207796 0,35 -4.170261,7.792204 -15,10 -15,10 v 20 z"
     id="path4782"
     inkscape:connector-curvature="0"
     sodipodi:nodetypes="cczzzzzzccc" />
  <path
     style="fill:none;fill-opacity:1;stroke:#294242;stroke-width:5;stroke-miterlimit:4;stroke-dasharray:none;stroke-opacity:1"
     d="m 25,70 c 0,0 13.365778,0.656917 20,0 8.457007,-0.837409 25,-5 25,-5"
     id="path4784"
     inkscape:connector-curvature="0"
     sodipodi:nodetypes="cac" />
</svg>
