<?xml version="1.0" encoding="UTF-8" standalone="no"?>
<svg
   xmlns:dc="http://purl.org/dc/elements/1.1/"
   xmlns:cc="http://creativecommons.org/ns#"
   xmlns:rdf="http://www.w3.org/1999/02/22-rdf-syntax-ns#"
   xmlns:svg="http://www.w3.org/2000/svg"
   xmlns="http://www.w3.org/2000/svg"
   xmlns:sodipodi="http://sodipodi.sourceforge.net/DTD/sodipodi-0.dtd"
   xmlns:inkscape="http://www.inkscape.org/namespaces/inkscape"
   viewBox="0 0 100 100"
   height="100"
   width="100"
   version="1.1"
   id="svg986"
   sodipodi:docname="water.svg"
   inkscape:version="0.92.2 5c3e80d, 2017-08-06">
  <metadata
     id="metadata992">
    <rdf:RDF>
      <cc:Work
         rdf:about="">
        <dc:format>image/svg+xml</dc:format>
        <dc:type
           rdf:resource="http://purl.org/dc/dcmitype/StillImage" />
        <dc:title></dc:title>
      </cc:Work>
    </rdf:RDF>
  </metadata>
  <defs
     id="defs990" />
  <sodipodi:namedview
     pagecolor="#ffffff"
     bordercolor="#666666"
     borderopacity="1"
     objecttolerance="10"
     gridtolerance="10"
     guidetolerance="10"
     inkscape:pageopacity="0"
     inkscape:pageshadow="2"
     inkscape:window-width="1011"
     inkscape:window-height="608"
     id="namedview988"
     showgrid="false"
     inkscape:zoom="2.36"
     inkscape:cx="50"
     inkscape:cy="50"
     inkscape:window-x="0"
     inkscape:window-y="0"
     inkscape:window-maximized="0"
     inkscape:current-layer="g1629" />
  <g
     id="g1629"
     transform="translate(-3.2545332,1.2529181)">
    <g
       id="g1607"
       transform="translate(-1.483,-6.144)"
       style="fill:none;stroke:#294242;stroke-width:5" />
    <g
       id="g1611"
       style="fill:none;stroke:#294242;stroke-width:5"
       transform="translate(2.1186441,-31.355932)">
      <path
         id="path1609"
         d="m -2.097,69.906 c 0,0 9.733,-4.797 15,-5 6.866,-0.263 13.128,5 20,5 6.871,0 13.133,-5.263 20,-5 5.266,0.203 9.73,5 15,5 5.27,0 9.73,-5 15,-5 5.27,0 9.73,5 15,5 5.27,0 15,-5 15,-5 M -4.608,82.237 c 0,0 9.734,-4.798 15,-5 6.867,-0.264 13.128,5 20,5 6.872,0 13.133,-5.264 20,-5 5.267,0.202 9.73,5 15,5 5.27,0 9.73,-5 15,-5 5.27,0 9.73,5 15,5 5.27,0 15,-5 15,-5 M -7.097,94.906 c 0,0 9.733,-4.797 15,-5 6.866,-0.263 13.128,5 20,5 6.871,0 13.133,-5.263 20,-5 5.266,0.203 9.73,5 15,5 5.27,0 9.73,-5 15,-5 5.27,0 9.73,5 15,5 5.27,0 15,-5 15,-5"
         inkscape:connector-curvature="0" />
    </g>
  </g>
</svg>
